<svg width="92" height="92" viewBox="0 0 92 92" fill="none" xmlns="http://www.w3.org/2000/svg">
    <path d="M9.55573 76.3416L11.0768 77.8258L9.92373 82.5056L8.8136 81.3893L9.55573 76.3416Z" fill="#3382AB" />
    <path d="M13.1192 74.7837L11.0768 77.8258L9.55573 76.3416L11.7821 73.5264L13.1192 74.7837Z" fill="#1C6791" />
    <path d="M15.548 77.8258L13.1192 74.7837L11.0768 77.8258L9.92374 82.5056L15.548 77.8258Z" fill="#69DAF1" />
    <path d="M17.6088 80.5001L14.6403 82.3217L9.92374 82.5057L15.548 77.8259L17.6088 80.5001Z" fill="#76E1F4" />
    <path d="M17.0507 68.9203L18.5349 70.1838L13.1192 74.7838L11.7821 73.5264L17.0507 68.9203Z" fill="#3997BF" />
    <path d="M19.4243 71.3368L18.5349 70.1837L13.1192 74.7837L15.548 77.8258L19.4243 71.3368Z" fill="#1E6D97" />
    <path d="M20.6509 73.6368L17.1611 75.0843L15.548 77.8259L22.0248 74.8206L20.6509 73.6368Z" fill="#3A94BD" />
    <path d="M22.9509 76.0472L22.0248 74.8206L15.548 77.8259L17.6088 80.5L22.9509 76.0472Z" fill="#65D8F0" />
    <path d="M20.1664 63.3206L21.5035 64.4307L18.5349 70.1838L17.0507 68.9203L20.1664 63.3206Z" fill="#C7F8FF" />
    <path d="M24.2512 66.1787L23.8771 63.0936L21.5035 64.4307L18.5349 70.1838L24.2512 66.1787Z" fill="#57C8E5" />
    <path d="M19.4243 71.3368L18.5349 70.1838L24.2512 66.1787L25.9195 68.4787L19.4243 71.3368L18.5349 70.1838Z" fill="#AAF7FF" />
    <path d="M20.6509 73.6368L22.0248 74.8205L25.9195 68.4786L22.9877 69.7728L20.6509 73.6368Z" fill="#3CAACF" />
    <path d="M27.5509 70.705L22.9509 76.0472L22.0248 74.8205L25.9195 68.4786L27.5509 70.705Z" fill="#A9F8FF" />
    <path d="M23.4723 59.7202L21.5403 60.6095L21.5035 64.4306L23.8771 63.0935L23.4723 59.7202Z" fill="#6ADAF1" />
    <path d="M17.8664 57.825L19.1299 58.8677L20.1664 57.2301L18.9397 56.2303L17.8664 57.825Z" fill="#3085AF" />
    <path d="M23.4723 59.7202L21.5403 60.6096L19.1299 58.8677L20.1664 57.2301L23.4723 59.7202Z" fill="#66D9F0" />
    <path d="M23.4723 59.7202L23.2821 59.5362L19.2035 56.4143L18.9397 56.2303L20.1664 57.2301L23.4723 59.7202Z" fill="#F2F5F9" />
    <path d="M20.1296 59.573L21.5403 60.6095L21.5035 64.4306L20.1664 63.3205L20.1296 59.573Z" fill="#388FB6" />
    <path d="M32.4147 77.237L31.5621 74.4893L30.4459 74.2562L31.0776 76.084L32.4147 77.237Z" fill="#A6D0E5" />
    <path d="M33.1936 73.4896L31.5621 74.4894L32.4147 77.2371L34.0093 76.4582L33.1936 73.4896Z" fill="#68D4ED" />
    <path d="M30.0227 71.6496L28.888 70.6315L31.5621 72.1525L33.1936 73.4896L30.0227 71.6496Z" fill="#4187AC" />
    <path d="M30.0227 71.6496L28.888 70.6315L27.9005 70.2328L27.5509 70.7051L30.0227 71.6496Z" fill="#46A1C7" />
    <path d="M28.3667 73.8209L31.5621 74.4894L33.1936 73.4897L30.0227 71.6497L28.3667 73.8209Z" fill="#53C5E4" />
    <path d="M22.9509 76.0472L28.3667 73.8208L30.0227 71.6496L27.5509 70.7051L22.9509 76.0472Z" fill="#7AE2F5" />
    <path d="M44.4483 68.9754L45.1659 68.8282L45.9571 69.4048L45.3253 76.1576L43.0621 74.3789L44.4483 68.9754Z" fill="#397EA5" />
    <path d="M45.9571 69.4047L45.1659 68.8282L45.2517 68.8098L45.9571 69.4047Z" fill="#D3DDE7" />
    <path d="M45.5155 65.5837L44.9205 66.5467L45.2517 68.8099L45.9571 69.4048L45.5155 65.5837Z" fill="#5DCDE9" />
    <path d="M44.9205 66.5467L43.4731 65.5469L44.4728 64.8048L45.5155 65.5837L44.9205 66.5467Z" fill="#368BB3" />
    <path d="M44.9205 66.5466L38.4621 69.1103L37.5789 67.6199L43.4731 65.5469L44.9205 66.5466Z" fill="#378AB2" />
    <path d="M37.4992 70.4045L38.4621 69.1104L44.9205 66.5466L45.2517 68.8098L37.4992 70.4045Z" fill="#7ADFF3" />
    <path d="M36.0149 68.5891L32.9667 64.9888L35.1563 63.5414L38.4621 69.1104L37.4992 70.4046L36.0149 68.5891Z" fill="#4DB5D8" />
    <path d="M31.7829 65.0256L32.9667 64.9888L35.1563 63.5413L35.4568 62.3514L31.7829 65.0256Z" fill="#378EB7" />
    <path d="M32.9667 64.9888L32.5067 65.001L36.0517 69.3312L37.4992 70.4045L36.0149 68.589L32.9667 64.9888Z" fill="#DCE7F1" />
    <path d="M29.0352 60.3888L30.8568 61.7259L27.2197 55.1203L25.2141 53.6729L29.0352 60.3888Z" fill="#D3EAF5" />
    <path d="M24.2512 66.1787L30.2251 62.7624L28.7408 61.6461L24.0488 64.5042L24.2512 66.1787Z" fill="#C5F6FE" />
    <path d="M25.9195 68.4787L24.2512 66.1787L30.2251 62.7625L31.0776 64.0995L25.9195 68.4787Z" fill="#3B9AC2" />
    <path d="M27.5509 70.7051L25.9195 68.4787L31.0776 64.0995L31.7829 65.0256L27.5509 70.7051Z" fill="#79E1F5" />
    <path d="M28.7408 61.6461L29.0352 60.3888L30.8568 61.7259L30.2251 62.7624L28.7408 61.6461Z" fill="#CBF7FE" />
    <path d="M31.8565 61.0205L30.2251 62.7624L30.8568 61.7258L31.8565 61.0205Z" fill="#D2E4F0" />
    <path d="M31.8565 61.0206L30.8568 61.7259L27.2197 55.1203L28.4403 54.4518L33.12 60.0883L31.8565 61.0206Z" fill="#A9F7FF" />
    <path d="M30.2251 62.7625L31.0776 64.0995L34.4571 60.8305L33.4144 59.3462L33.12 60.0883L31.8565 61.0206L30.2251 62.7625Z" fill="#3B98C0" />
    <path d="M33.4144 59.3462L33.12 60.0883L31.1328 57.6963L31.9669 58.236L33.4144 59.3462Z" fill="#58BCDC" />
    <path d="M34.4571 60.8304L36.0885 59.383L34.9477 57.6963L33.4144 59.3462L34.4571 60.8304Z" fill="#69D7EF" />
    <path d="M33.4144 59.3461L34.9477 57.6962L33.488 56.6045L31.9669 58.236L33.4144 59.3461Z" fill="#B6F5FE" />
    <path d="M34.9477 57.6963L33.488 56.6046L35.236 54.6726L35.8984 55.1203L40.02 52.9675L38.2413 54.0409L34.9477 57.6963Z" fill="#BBF6FE" />
    <path d="M34.9477 57.6962L36.0885 59.3829L41.4675 54.6357L38.2413 54.0408L34.9477 57.6962Z" fill="#71DEF2" />
    <path d="M36.0885 59.3829L34.4571 60.8304L35.4568 62.3515L37.3888 61.2413L36.0885 59.3829Z" fill="#39A1C8" />
    <path d="M36.0885 59.3829L37.3888 61.2413L41.6515 58.7941L41.4675 54.6357L36.0885 59.3829Z" fill="#A6F8FF" />
    <path d="M38.2413 54.0408L40.02 52.9674L43.5467 52.8141L41.4675 54.6357L38.2413 54.0408Z" fill="#54B9DA" />
    <path d="M41.6515 58.7941L42.6573 57.3834L43.5467 52.8141L41.4675 54.6357L41.6515 58.7941Z" fill="#4BBDDD" />
    <path d="M35.8984 55.1203L35.236 54.6725L34.2669 54.004L35.3096 51.1459L36.8307 52.1885L35.8984 55.1203Z" fill="#C3F8FF" />
    <path d="M36.8307 52.1885L35.3096 51.1459L34.0093 49.1403L35.4936 50.1461L36.8307 52.1885Z" fill="#D2E7F3" />
    <path d="M35.4936 50.1461L34.0093 49.1403L37.7936 49.3672L39.4987 50.3669L35.4936 50.1461Z" fill="#4293B9" />
    <path d="M39.4987 50.3669L35.4936 50.1461L36.8307 52.1885L35.8984 55.1203L40.02 52.9675L43.5467 52.8141L45.6627 50.9618L40.8357 51.1826L39.4987 50.3669Z" fill="#40A3C8" />
    <path d="M45.6627 50.9619L44.1784 56.3776L42.6573 57.3835L43.5467 52.8142L45.6627 50.9619Z" fill="#2C8DB7" />
    <path d="M45.6627 50.9618L44.16 49.9744L43.2093 49.9989L40.8357 51.1826L45.6627 50.9618Z" fill="#3687AF" />
    <path d="M40.8357 51.1827L39.4987 50.367L43.5099 48.0302L45.6627 48.8336L43.2093 49.999L40.8357 51.1827Z" fill="#2A86AE" />
    <path d="M39.4987 50.367L38.456 49.7536L41.3939 47.2512L43.5099 48.0302L39.4987 50.367Z" fill="#50C0E0" />
    <path d="M41.6515 58.7942L39.7256 61.1678L38.7259 60.4686L41.6515 58.7942Z" fill="#5ECDE8" />
    <path d="M39.7256 61.1677L42.5837 60.72L44.1784 56.3776L42.6573 57.3834L41.6515 58.7941L39.7256 61.1677Z" fill="#A6F8FF" />
    <path d="M42.5837 60.72L43.5099 62.425L41.952 61.321L41.6637 60.861L42.5837 60.72Z" fill="#D7EAF5" />
    <path d="M43.5099 62.425L42.5837 60.72L44.1784 56.3776L44.436 58.052L43.5099 62.425Z" fill="#50BADB" />
    <path d="M44.1784 56.3776L45.6627 50.9618L45.5829 50.9066L45.8099 50.5509L47.3677 51.5936L44.1784 56.3776Z" fill="#3699C1" />
    <path d="M47.3677 51.5936L47.4045 54.2248L44.436 58.052L44.1784 56.3776L47.3677 51.5936Z" fill="#34A0C7" />
    <path d="M44.436 58.052L43.6755 61.6277L44.4728 64.8048L45.5155 65.5837L44.436 58.052Z" fill="#B2E4F5" />
    <path d="M44.436 58.0521L47.4045 54.2249L48.1467 57.2302L44.6629 59.6222L44.436 58.0521Z" fill="#A4F7FF" />
    <path d="M48.1467 57.2301L47.3309 63.1304L45.2456 63.6946L44.6629 59.6221L48.1467 57.2301Z" fill="#5DCDE9" />
    <path d="M45.5155 65.5837L44.9205 66.5467L45.2517 68.8099L45.9571 69.4048L45.5155 65.5837Z" fill="#5DCDE9" />
    <path d="M45.9571 69.4048L47.3309 68.957V64.9888L45.5155 65.5837L45.9571 69.4048Z" fill="#6CD7EF" />
    <path d="M47.3309 64.9888L45.5155 65.5837L45.2456 63.6946L47.3309 63.1304V64.9888Z" fill="#67D5ED" />
    <path d="M48.1467 57.2301L50.1155 58.1624L49.5573 62.652L47.3309 63.1304L48.1467 57.2301Z" fill="#44A8CE" />
    <path d="M49.5573 62.652L47.3309 63.1304V64.9888L49.1893 64.5042L49.5573 62.652Z" fill="#75DEF3" />
    <path d="M49.1893 64.5043L47.3309 64.9888V68.9571L48.7048 68.5523L49.1893 64.5043Z" fill="#6CD8EF" />
    <path d="M47.3309 68.957L47.4781 74.8205L50.0419 73.8576L48.7048 68.5522L47.3309 68.957Z" fill="#66D1EB" />
    <path d="M47.3309 68.957L45.9571 69.4048L45.3253 76.1576L47.4781 74.8205L47.3309 68.957Z" fill="#3D93BC" />
    <path d="M43.0621 74.3789L45.3253 76.1576L42.0256 75.0843L40.5413 73.8944L43.0621 74.3789Z" fill="#F0FAFF" />
    <path d="M42.0256 75.0843L40.5413 73.8944L37.5728 74.1152L39.3515 75.5259L42.0256 75.0843Z" fill="#EAFAFF" />
    <path d="M39.3515 75.5259L37.5728 74.1152L33.7763 75.6056L35.3464 76.8998L39.3515 75.5259Z" fill="#BEF5FE" />
    <path d="M39.3515 75.5259L39.1491 76.8997L35.788 78.1264L35.3464 76.8997L39.3515 75.5259Z" fill="#76D6EE" />
    <path d="M35.3464 76.8997L35.788 78.1264L34.3405 76.9365L33.7763 75.6056L35.3464 76.8997Z" fill="#D1E9F5" />
    <path d="M39.3515 75.5258L39.1491 76.8997L41.4675 77.4578L42.0256 75.0842L39.3515 75.5258Z" fill="#68ABCD" />
    <path d="M42.0256 75.0842L41.4675 77.4578L44.4728 82.0946L45.3253 76.1576L42.0256 75.0842Z" fill="#41799D" />
    <path d="M44.4728 82.0946L42.504 80.5L40.5843 77.2432L41.4675 77.4578L44.4728 82.0946Z" fill="#DBEBF5" />
    <path d="M44.4728 82.0947L47.4781 74.8206L45.3253 76.1576L44.4728 82.0947Z" fill="#5F9BBE" />
    <path d="M47.4781 74.8205L50.0419 73.8575L50.9312 79.2733L49.5573 79.6474L47.4781 74.8205Z" fill="#79DCF2" />
    <path d="M47.4781 74.8206L46.9691 76.0595L48.1099 78.4944L49.5573 79.6475L47.4781 74.8206Z" fill="#D0E8F5" />
    <path d="M50.9312 79.2734L50.0419 73.8576L52.4891 71.8521L53.0104 73.8576L50.9312 79.2734Z" fill="#6CD7EF" />
    <path d="M49.5573 79.6474L48.1099 78.4944L46.2576 83.3213L47.7787 86.2899L49.5573 79.6474Z" fill="#255E84" />
    <path d="M47.7787 86.2898L46.2576 83.3213L45.0309 81.0581L44.4728 82.0946L43.7675 87.0688L47.7787 86.2898Z" fill="#64CBE8" />
    <path d="M44.4728 82.0947L42.504 80.5L42.2832 85.8053L43.7675 87.0688L44.4728 82.0947Z" fill="#A6E1F4" />
    <path d="M43.7675 87.0688L44.3992 89.5528L42.9885 88.369L42.2832 85.8053L43.7675 87.0688Z" fill="#A9D5EA" />
    <path d="M47.7787 86.2899L47.2941 91.4481L44.3992 89.5528L43.7675 87.0689L47.7787 86.2899Z" fill="#60CFEA" />
    <path d="M47.2941 91.448L50.3363 87.7005L50.784 84.6952L47.7787 86.2899L47.2941 91.448Z" fill="#44A5CC" />
    <path d="M47.7787 86.2899L49.5573 79.6474L50.9312 79.2733L50.784 84.6952L47.7787 86.2899Z" fill="#3896C0" />
    <path d="M52.4891 71.852L51.1152 70.8523L49.5941 72.0974L50.0419 73.8576L52.4891 71.852Z" fill="#46A8CD" />
    <path d="M52.4891 71.852L55.752 69.6992L54.1573 68.5891L51.1152 70.8523L52.4891 71.852Z" fill="#C2F7FE" />
    <path d="M55.752 69.6992L55.7152 71.2571L53.0104 73.8576L52.4891 71.852L55.752 69.6992Z" fill="#76DCF1" />
    <path d="M55.7152 71.2571L58.2789 71.1467L58.8371 69.552L55.752 69.6992L55.7152 71.2571Z" fill="#80DDF2" />
    <path d="M58.8371 69.552L55.752 69.6992L54.1573 68.5891L57.2792 68.4664L58.8371 69.552Z" fill="#E7F9FF" />
    <path d="M48.7048 68.5523L49.6309 67.6261L49.9683 65.3568L49.1893 64.5043L48.7048 68.5523Z" fill="#4FC5E4" />
    <path d="M49.6309 67.6261L56.7211 64.7311L56.0893 63.6885L49.9683 65.3567L49.6309 67.6261Z" fill="#6BD4ED" />
    <path d="M56.0893 63.6886L49.9683 65.3568L49.1893 64.5043L49.3181 63.8603L54.5315 62.6152L56.0893 63.6886Z" fill="#2F7DA7" />
    <path d="M56.7211 64.7312L60.9101 57.1198L59.0947 56.7886L56.0893 63.6886L56.7211 64.7312Z" fill="#6DD8EF" />
    <path d="M56.0893 63.6885L54.5315 62.6152L57.7944 55.9728L59.0947 56.7885L56.0893 63.6885Z" fill="#2676A0" />
    <path d="M59.0947 56.7886L58.6469 55.8992L57.6472 55.7827L57.7944 55.9729L59.0947 56.7886Z" fill="#C2E4F3" />
    <path d="M58.6469 55.8992L59.0947 56.7885L60.9101 57.1197L61.916 56.5616L58.6469 55.8992Z" fill="#3188B0" />
    <path d="M61.916 56.5617L62.6213 55.1203L59.9472 54.2249L58.6469 55.8993L61.916 56.5617Z" fill="#64CAE7" />
    <path d="M59.9472 54.2248L62.6213 55.1202L63.8419 54.004L60.5053 52.0352L59.9472 54.2248Z" fill="#70DAF0" />
    <path d="M58.6469 55.8992L59.9472 54.2248L58.0949 53.4458L53.268 51.704L53.5256 55.1202L57.6472 55.7826L58.6469 55.8992Z" fill="#56C7E5" />
    <path d="M59.9472 54.2248L58.0949 53.4458L59.1315 51.2562L60.5053 52.0352L59.9472 54.2248Z" fill="#A8F7FF" />
    <path d="M58.0949 53.4459L59.1315 51.2563L56.1629 49.3304L53.268 51.704L58.0949 53.4459Z" fill="#66D4ED" />
    <path d="M53.268 51.7041L51.3789 51.0355L52.8509 55.3963L53.5256 55.1203L53.268 51.7041Z" fill="#59B6D8" />
    <path d="M52.8509 55.3963L50.9312 54.8933L49.4101 50.2933L51.3789 51.0355L52.8509 55.3963Z" fill="#55CAE7" />
    <path d="M50.9312 54.8934L48.7784 52.8878L47.5517 49.1035L49.4101 50.2934L50.9312 54.8934Z" fill="#97CFE7" />
    <path d="M49.4101 50.2934L47.5517 49.1035L49.4469 48.2142L49.5573 48.2878L53.7893 47.8462L49.4101 50.2934Z" fill="#4AABCF" />
    <path d="M51.3789 51.0355L49.4101 50.2934L53.7893 47.8462L55.0896 48.6619L51.3789 51.0355Z" fill="#AFF7FF" />
    <path d="M51.3789 51.0355L53.268 51.704L56.1629 49.3304L55.0896 48.6619L51.3789 51.0355Z" fill="#4BBADC" />
    <path d="M61.916 56.5616L61.7259 56.6659L64.8477 59.1254L65.7371 59.6467L61.916 56.5616Z" fill="#CBD9E6" />
    <path d="M65.7371 59.6467L64.8477 59.1254L61.8792 60.7936L63.4739 61.8363L65.7371 59.6467Z" fill="#40A6CC" />
    <path d="M63.4739 61.8362L61.8792 60.7936L59.2787 63.9093L60.8733 64.952L63.4739 61.8362Z" fill="#93EBFA" />
    <path d="M63.4739 61.8363L60.8733 64.952L62.1 65.3568L65.1421 63.1672L63.4739 61.8363Z" fill="#ACF8FF" />
    <path d="M60.8733 64.952L62.1 65.3568L61.3211 68.3683L60.4317 68.9203L60.8733 64.952Z" fill="#3790BA" />
    <path d="M60.8733 64.952L59.2787 63.9093L58.9107 67.8837L60.4317 68.9202" fill="#2A769F" />
    <path d="M65.1421 63.1671L63.4739 61.8362L65.7371 59.6466L69.7851 62.1674L65.1421 63.1671Z" fill="#23709A" />
    <path d="M65.7371 59.6466L61.916 56.5616L62.6213 55.1202L67.1477 56.8253L65.7371 59.6466Z" fill="#6FD9F0" />
    <path d="M67.1477 56.8253L65.7371 59.6466L69.7851 62.1675L70.1531 60.6464L67.1477 56.8253Z" fill="#2A7EA9" />
    <path d="M70.1531 60.6464L69.368 59.6467L73.9005 58.9781L75.4216 59.8675L70.1531 60.6464Z" fill="#3C789F" />
    <path d="M75.4216 59.8674L70.1531 60.6464L69.7851 62.1674L73.7533 63.5413L75.4216 59.8674Z" fill="#1D5980" />
    <path d="M75.4216 59.8674L73.7533 63.5413L76.0165 63.6149L79.948 61.6093L75.4216 59.8674Z" fill="#69D6EE" />
    <path d="M75.4216 59.8675L79.948 61.6093L79.0587 57.7515L77.2064 56.2672L75.4216 59.8675Z" fill="#1D6089" />
    <path d="M75.4216 59.8674L73.9005 58.9781L71.9317 56.0463L72.3917 55.9789L75.4216 59.8674Z" fill="#D9EAF5" />
    <path d="M75.4216 59.8674L77.2064 56.2672L73.048 54.6725L72.3917 55.9789L75.4216 59.8674Z" fill="#6BD4ED" />
    <path d="M77.2064 56.2672L73.048 54.6725L72.7904 54.2616L76.0165 55.5619L77.2064 56.2672Z" fill="#4F86AA" />
    <path d="M73.048 54.6725L68.3376 53.8936L67.1477 56.8253L72.3917 55.9789L73.048 54.6725Z" fill="#58C3E2" />
    <path d="M67.1477 56.8253L62.6213 55.1202L63.8419 54.004L68.3376 53.8936L67.1477 56.8253Z" fill="#7DCEE8" />
    <path d="M63.8419 54.0039L63.5843 52.9306L63.6579 52.7405L66.7736 52.9306L68.3376 53.8935L63.8419 54.0039Z" fill="#F0FBFF" />
    <path d="M63.8419 54.004L60.5053 52.0352L61.5787 51.7408L63.5843 52.9307L63.8419 54.004Z" fill="#4195BC" />
    <path d="M60.5053 52.0352L59.1315 51.2563L58.8003 51.0416H60.3827L61.5787 51.7408L60.5053 52.0352Z" fill="#3B9EC4" />
    <path d="M61.5787 51.7408L60.3827 51.0416L63.5475 44.1355L65.0317 44.9512L61.5787 51.7408Z" fill="#28729B" />
    <path d="M63.5843 52.9307L61.5787 51.7408L65.0317 44.9512L66.4056 44.6139L63.5843 52.9307Z" fill="#29739C" />
    <path d="M66.7736 52.9307L68.3376 53.8936L68.6688 50.9251L67.0741 50.0358L66.7736 52.9307Z" fill="#5791B3" />
    <path d="M68.6688 50.925L67.0741 50.0357L67.7795 46.1349L69.4109 47.0672L68.6688 50.925Z" fill="#2D7EA8" />
    <path d="M69.4109 47.0672L67.7795 46.1349L70.0427 43.0192L71.7109 43.9085L69.4109 47.0672Z" fill="#B7F7FF" />
    <path d="M71.7109 43.9086L69.4109 47.0672L70.6008 47.5824L72.5267 44.9512L71.7109 43.9086Z" fill="#66D3EC" />
    <path d="M70.6008 47.5823L69.4109 47.0671L68.6688 50.925L70.6008 50.9925V47.5823Z" fill="#6BD6EE" />
    <path d="M70.6008 50.9925L68.6688 50.925L68.3376 53.8936L73.048 54.6725L70.6008 50.9925Z" fill="#6BD5EE" />
    <path d="M52.8509 55.3962L50.9312 54.8933L53.2312 58.1992L54.7891 57.0093L52.8509 55.3962Z" fill="#3597BF" />
    <path d="M53.2312 58.1992L50.9312 54.8933L50.8208 56.7885L51.2624 60.2784L53.2312 58.1992Z" fill="#6DDCF2" />
    <path d="M50.8208 56.7886L50.1155 58.1624L49.9621 59.3891L51.2624 60.2784L50.8208 56.7886Z" fill="#AFE1F3" />
    <path d="M50.8208 56.7886L47.4045 54.2249L48.1467 57.2302L50.1155 58.1625L50.8208 56.7886Z" fill="#2E8DB7" />
    <path d="M50.8208 56.7886L47.4045 54.2248L47.3677 51.5936L48.7784 52.8878L50.9312 54.8934L50.8208 56.7886Z" fill="#2D8AB3" />
    <path d="M49.5573 48.2877L51.1275 46.1165L52.1579 41.5349L50.9312 42.688L49.5573 48.2877Z" fill="#3F9CC2" />
    <path d="M35.4568 62.3515L34.4571 60.8304L31.0776 64.0995L31.7829 65.0256L35.4568 62.4251" fill="#73DCF2" />
    <path d="M65.0317 44.9512L63.5475 44.1355L60.7629 39.9403L61.7688 39.7931L65.0317 44.9512Z" fill="#D1E9F6" />
    <path d="M65.0317 44.9512L61.7688 39.7931L60.7629 39.9403L63.7683 36.708L63.4371 37.8979L66.4056 44.6139L65.0317 44.9512Z" fill="#387DA3" />
    <path d="M49.5573 48.2877L49.4469 48.2141L48.3307 47.5088L50.9312 42.688L49.5573 48.2877Z" fill="#3899C0" />
    <path d="M49.5573 48.2878L53.7893 47.8462L55.0528 46.3987L51.1275 46.1166L49.5573 48.2878Z" fill="#3090B8" />
    <path d="M53.7893 47.8461L55.0896 48.6619L58.6837 48.8459L57.5736 46.8771L53.7893 47.8461Z" fill="#3EA9CE" />
    <path d="M57.5736 46.8771L53.7893 47.8462L55.0528 46.3987L59.3032 44.6139L57.5736 46.8771Z" fill="#81E3F5" />
    <path d="M55.0528 46.3987L56.2365 45.0433L57.5 43.5774L59.3032 44.6139L55.0528 46.3987Z" fill="#B4EEFB" />
    <path d="M56.2365 45.0432L53.1944 44.3195L51.1275 46.1165L55.0528 46.3987L56.2365 45.0432Z" fill="#318EB8" />
    <path d="M53.1944 44.3194L51.1275 46.1165L52.1579 41.5349L53.9365 40.5352L53.1944 44.3194Z" fill="#67D7EF" />
    <path d="M53.1944 44.3194L53.9365 40.5352L57.5 38.045L58.4261 39.7562L53.1944 44.3194Z" fill="#63CFEA" />
    <path d="M56.2365 45.0432L53.1944 44.3194L58.4261 39.7562L59.3523 41.4981L56.2365 45.0432Z" fill="#5BCBE7" />
    <path d="M59.3523 41.4981L58.4261 39.7562L60.168 38.5295L60.7629 39.9402L59.3523 41.4981Z" fill="#6FD6EE" />
    <path d="M60.168 38.5296L58.4261 39.7563L57.5 38.0451L59.0579 36.7877L60.168 38.5296Z" fill="#3D97BE" />
    <path d="M59.0579 36.7877L57.3896 35.8922L56.0157 37.2293L57.5 38.045L59.0579 36.7877Z" fill="#C0F5FE" />
    <path d="M56.0157 37.2294L57.5 38.0451L53.9365 40.5352L52.1579 41.535L55.0528 37.7875L56.0157 37.2294Z" fill="#CCF8FF" />
    <path d="M55.0528 37.7875L52.6731 38.3824L50.9312 42.688L52.1579 41.5349L55.0528 37.7875Z" fill="#48ABCF" />
    <path d="M52.6731 38.3824L52.0045 37.2662L53.8261 37.0822L55.0528 37.7875L52.6731 38.3824Z" fill="#4499BF" />
    <path d="M48.1712 47.8461L48.3307 47.5088L50.9312 42.688L52.6731 38.3824L51.3789 36.2296L50.4467 40.8296L47.6621 44.8408L48.1712 47.8461Z" fill="#3296BE" />
    <path d="M59.0579 36.7877L57.3896 35.8923L58.1685 35.0029L59.4688 35.6715L59.0579 36.7877Z" fill="#47A1C7" />
    <path d="M59.4688 35.6714L59.0579 36.7877L63.0629 34.5981L61.4315 34.2607L59.4688 35.6714Z" fill="#3C91B9" />
    <path d="M63.0629 34.5981L59.0579 36.7877L60.168 38.5296L63.4371 35.6715L63.0629 34.5981Z" fill="#50BFDF" />
    <path d="M63.4371 35.6715L60.168 38.5296L60.7629 39.9403L63.7683 36.708L63.4371 35.6715Z" fill="#419BC2" />
    <path d="M61.4315 34.2608L59.4688 35.6715L56.6475 29.6608L57.6472 28.2501L61.4315 34.2608Z" fill="#6EDBF1" />
    <path d="M59.4688 35.6714L58.1685 35.0029L55.568 30.0288L56.6475 29.6608L59.4688 35.6714Z" fill="#B3DFF0" />
    <path d="M57.6472 28.2501L56.6475 29.6608L55.568 30.0288L50.4467 31.8872L49.6309 29.1027L57.6472 28.2501Z" fill="#ACF8FF" />
    <path d="M57.6472 28.2502L49.6309 29.1027L48.9992 28.3974L49.0728 28.1398L55.752 27.2872L57.6472 28.2502Z" fill="#48B0D3" />
    <path d="M49.6309 29.1027L48.9992 28.3973L47.4045 28.6611L47.4781 33.1139L49.6309 32.7827L50.4467 31.8872" fill="#339DC4" />
    <path d="M47.4781 33.1139V35.2176L49.7413 34.7822L49.6309 32.7827L47.4781 33.1139Z" fill="#96F2FD" />
    <path d="M47.4781 35.2176L45.5891 35.8555L45.4357 33.4819L47.4781 33.1139V35.2176Z" fill="#ADF8FF" />
    <path d="M45.5891 35.8555L45.4357 33.4819L44.1784 32.8134L43.8043 32.8502L43.6203 34.7454L45.5891 35.8555Z" fill="#7FD6ED" />
    <path d="M45.4357 33.4819L44.1784 32.8133L44.8469 32.6661L45.4357 33.4819Z" fill="#CCE8F5" />
    <path d="M47.4781 35.2176L47.5517 42.1298L50.1891 39.0877L49.7413 34.7821L47.4781 35.2176Z" fill="#3293BB" />
    <path d="M50.1891 39.0878L47.5517 42.1299L47.6621 44.8408L50.4467 40.8296L50.1891 39.0878Z" fill="#AAF6FE" />
    <path d="M47.5517 42.1299L47.6621 44.8408L44.3624 42.2403L44.62 40.4248L47.5517 42.1299Z" fill="#3BA4C8" />
    <path d="M44.62 40.4249L47.5517 42.1299L47.4781 35.2177L45.5891 35.8555L44.62 40.4249Z" fill="#72DCF2" />
    <path d="M44.3624 42.2402L44.1416 44.1354L48.1712 47.8461L47.6621 44.8408L44.3624 42.2402Z" fill="#AAF8FF" />
    <path d="M48.1712 47.8462L46.2944 46.6563L44.2888 44.6875L44.1416 44.1355L48.1712 47.8462Z" fill="#DDEBF4" />
    <path d="M44.1416 44.1355L44.2888 44.6875L45.6627 48.8336L43.5099 48.0302L42.5469 43.835L44.1416 44.1355Z" fill="#58CAE6" />
    <path d="M42.5469 43.835L40.9829 43.559L41.3939 47.2512L43.5099 48.0302L42.5469 43.835Z" fill="#44B4D7" />
    <path d="M41.3939 47.2512L35.8248 45.172L37.2723 43.0192L40.9829 43.5589L41.3939 47.2512Z" fill="#7AE2F5" />
    <path d="M35.8248 45.172L35.2728 47.8829L38.456 49.7536L41.3939 47.2512L35.8248 45.172Z" fill="#2E8AB3" />
    <path d="M35.2728 47.883L33.6352 46.9875L34.3773 44.6875L35.8248 45.172L35.2728 47.883Z" fill="#75DEF3" />
    <path d="M50.4467 40.8295L50.1891 39.0877L49.8027 35.3647L51.3789 36.2295L50.4467 40.8295Z" fill="#3E9EC5" />
    <path d="M45.5891 35.8555L43.6203 34.7454L43.2093 38.0451L43.3627 38.1187L44.3624 42.2403L45.5891 35.8555Z" fill="#CCF9FF" />
    <path d="M44.3624 42.2403L44.1416 44.1355L42.0992 40.8296L43.3627 38.1187L44.3624 42.2403Z" fill="#4BACCF" />
    <path d="M43.3627 38.1186L43.2093 38.045L41.8048 37.1925L40.5781 39.9034L40.8357 40.0874L42.0992 40.8296L43.3627 38.1186Z" fill="#3FA0C6" />
    <path d="M40.8357 40.0874H40.6517L40.5781 39.9034L40.8357 40.0874Z" fill="#C3DFEF" />
    <path d="M40.8357 40.0875H40.6517L38.0144 40.4985L39.5355 41.4614L42.0992 40.8297L40.8357 40.0875Z" fill="#378EB6" />
    <path d="M42.0992 40.8296L39.5355 41.4613L42.5469 43.8349L44.1416 44.1355L42.0992 40.8296Z" fill="#308FB8" />
    <path d="M42.5469 43.8349L40.9829 43.5589L37.2723 43.0192L35.1195 42.3875L34.7515 41.6821L41.0565 42.9088L42.5469 43.8349Z" fill="#449AC0" />
    <path d="M42.5469 43.8349L41.0565 42.9088L38.0144 40.4984L39.5355 41.4613L42.5469 43.8349Z" fill="#3E8FB6" />
    <path d="M37.2723 43.0192L35.1195 42.3875L34.3773 44.6875L35.8248 45.172L37.2723 43.0192Z" fill="#39A6CB" />
    <path d="M35.1195 42.3875L31.2248 41.5718L29.8509 44.8776L33.6352 46.9875L35.1195 42.3875Z" fill="#A9F8FF" />
    <path d="M33.6352 46.9874L32.0405 47.0304L30.4459 46.1717L29.8509 44.8776L33.6352 46.9874Z" fill="#72DEF3" />
    <path d="M28.4403 54.4518L27.2197 55.1203L30.4459 46.1718L32.0405 47.0304L28.4403 54.4518Z" fill="#54B5D7" />
    <path d="M27.2197 55.1203L25.2141 53.6728L28.6304 44.9144L30.4459 46.1718L27.2197 55.1203Z" fill="#C9F8FF" />
    <path d="M30.4459 46.1717L28.6304 44.9144L28.5936 44.7979L29.8509 44.8776L30.4459 46.1717Z" fill="#8CD1E9" />
    <path d="M29.8509 44.8776L30.5685 43.1541L24.9197 41.1301L23.4355 44.3931L28.5936 44.7979L29.8509 44.8776Z" fill="#3696BD" />
    <path d="M30.5685 43.1541L31.2248 41.5717L26.4408 37.8242L24.9197 41.1301L30.5685 43.1541Z" fill="#85EAF9" />
    <path d="M23.4355 44.3931L17.1979 43.3565L17.9768 41.7925L24.9197 41.1301L23.4355 44.3931Z" fill="#4BADD0" />
    <path d="M23.4355 44.3931L23.3189 47.8094L21.1293 47.9198L17.1979 43.3566L23.4355 44.3931Z" fill="#ADF8FF" />
    <path d="M21.1293 47.9198L19.3875 46.6563L16.3821 43.056L17.1979 43.3566L21.1293 47.9198Z" fill="#D2E5F1" />
    <path d="M17.1979 43.3565L16.3821 43.056L11.592 41.4613L13.34 36.8613L17.9768 41.7925L17.1979 43.3565Z" fill="#A0F5FE" />
    <path d="M24.9197 41.1301L23.9507 40.4615L17.0445 40.7989L17.9768 41.7925L24.9197 41.1301Z" fill="#E4F8FE" />
    <path d="M24.9197 41.1302L23.9507 40.4616L20.1296 36.4872L20.7981 36.4504L24.9197 41.1302Z" fill="#B9D1E2" />
    <path d="M24.9197 41.1302L20.7981 36.4504L21.3563 34.7454L26.4408 37.8243L24.9197 41.1302Z" fill="#3F96BC" />
    <path d="M20.7981 36.4504L20.1296 36.4872L13.34 36.8613L15.3027 32.3717L21.3563 34.7453" fill="#ABF8FF" />
    <path d="M11.592 41.4613L8.62347 39.3821L7.13921 34.5613L13.34 36.8613L11.592 41.4613Z" fill="#2477A1" />
    <path d="M13.34 36.8613L7.13921 34.5613L11.9293 31.9976L15.3027 32.3717L13.34 36.8613Z" fill="#2F86AF" />
    <path d="M7.1392 34.5613L5.58133 33.4818L7.32933 38.4559L8.62346 39.3821L7.1392 34.5613Z" fill="#4B81A6" />
    <path d="M7.1392 34.5613L5.58133 33.4819L10.5555 31.0347L11.9293 31.9976L7.1392 34.5613Z" fill="#236188" />
    <path d="M11.9293 31.9976L10.5555 31.0347L14.3397 31.74L15.3027 32.3717L11.9293 31.9976Z" fill="#CAE1EF" />
    <path d="M26.4408 37.8243L29.0352 35.3771L27.4405 33.9664L21.3563 34.7454L26.4408 37.8243Z" fill="#83E3F6" />
    <path d="M27.4405 33.9664L25.6987 32.887L19.872 33.7824L21.3563 34.7454" fill="#EAFAFF" />
    <path d="M21.3563 34.7453L19.872 33.7824L14.3397 31.74L15.3027 32.3717L21.3563 34.7453Z" fill="#F3F9FD" />
    <path d="M21.1293 47.9197L21.2091 51.5936L22.7301 52.1088L23.3189 47.8093L21.1293 47.9197Z" fill="#58C5E3" />
    <path d="M19.3875 46.6562L20.24 50.8515L21.2091 51.5936L21.1293 47.9197L19.3875 46.6562Z" fill="#8BCCE5" />
    <path d="M20.24 50.8514L21.2091 51.5936L22.7301 52.1088L20.3504 55.8194L18.7925 54.4149L17.572 53.4458L20.24 50.8514Z" fill="#2779A3" />
    <path d="M20.3504 55.8195L18.8293 54.6358L17.572 53.4459L18.7925 54.415L20.3504 55.8195Z" fill="#346F94" />
    <path d="M29.0352 35.3771L27.4467 33.9664L31.2984 31.74L32.8195 32.3349L29.0352 35.3771Z" fill="#64CFEA" />
    <path d="M27.4467 33.9664L25.6987 32.8869L28.9984 30.3661L31.2984 31.74L27.4467 33.9664Z" fill="#4DA4C9" />
    <path d="M32.8195 32.3349L31.2984 31.74V27.6552L33.2672 27.7288L32.8195 32.3349Z" fill="#A8F8FF" />
    <path d="M31.2984 27.6551L29.7405 26.8026L28.9984 30.3661L31.2984 31.7399V27.6551Z" fill="#CEF8FE" />
    <path d="M31.2984 27.6551L29.7405 26.8026L31.8197 26.9498L33.2672 27.7287L31.2984 27.6551Z" fill="#51AFD2" />
    <path d="M35.1195 42.3874L34.7515 41.6821L34.6411 41.4613L32.3779 41.0135L31.2248 41.5717L35.1195 42.3874Z" fill="#44B7DA" />
    <path d="M32.3779 41.0137L31.2248 41.5718L29.8509 40.4984L30.9304 40.0139L32.3779 41.0137Z" fill="#40A5CB" />
    <path d="M32.3779 41.0136L30.9304 40.0138L35.42 31.5928L36.9779 32.5189L32.3779 41.0136Z" fill="#399EC6" />
    <path d="M32.3779 41.0136L34.6411 41.4613L37.7568 33.8192L36.9779 32.5189L32.3779 41.0136Z" fill="#57CCE8" />
    <path d="M36.9779 32.5189L45.2885 30.1821L43.5099 29.213L35.42 31.5927L36.9779 32.5189Z" fill="#39A2C7" />
    <path d="M45.2885 30.1821L36.9779 32.5189L37.9408 33.9296L43.8043 32.8501L44.1784 32.8133L44.8469 32.6661L45.2885 30.1821Z" fill="#ACF8FF" />
    <path d="M37.9408 33.9296L37.7568 33.8192L36.9779 32.5189L37.9408 33.9296Z" fill="#C5EDF9" />
    <path d="M44.8469 32.6661L45.4357 33.4818L45.9203 28.9554L45.2885 30.1821L44.8469 32.6661Z" fill="#4FC0DF" />
    <path d="M45.2885 30.1821L45.9203 28.9554L44.3256 28.1029L43.5099 29.213L45.2885 30.1821Z" fill="#43A9CE" />
    <path d="M45.4357 33.4818L47.4781 33.1138L47.4045 28.661L45.9203 28.9554L45.4357 33.4818Z" fill="#52C7E5" />
    <path d="M45.9203 28.9555L47.4045 28.6611L47.7787 22.1659L44.5832 22.6443L45.9203 28.9555Z" fill="#63D5EE" />
    <path d="M45.9203 28.9555L44.3256 28.103L43.2093 23.5766L44.5832 22.6443L45.9203 28.9555Z" fill="#A3DDF0" />
    <path d="M47.4045 28.661L48.9992 28.3973L49.0728 28.1397L50.4467 21.4237L47.7787 22.1658L47.4045 28.661Z" fill="#4DBFDF" />
    <path d="M44.5832 22.6442L43.2093 23.5765L41.0197 22.0922L43.5835 15.9282L44.5832 22.6442Z" fill="#41A8CC" />
    <path d="M41.0197 22.0923L41.6883 24.6131L43.2093 23.5766L41.0197 22.0923Z" fill="#3495BD" />
    <path d="M41.0197 22.0923L37.9776 24.9075V26.7966L41.6883 24.6131L41.0197 22.0923Z" fill="#57CBE7" />
    <path d="M37.9776 26.7966L34.2669 26.5451L34.8619 24.6499L37.9776 24.9075V26.7966Z" fill="#83E9F9" />
    <path d="M34.8619 24.6499L33.304 23.7974L32.7459 25.6926L34.2669 26.5451L34.8619 24.6499Z" fill="#CAF8FF" />
    <path d="M33.304 23.7974L34.8619 24.6499L37.9776 24.9075L36.4197 24.0918L33.304 23.7974Z" fill="#489BC0" />
    <path d="M36.4197 24.0918L37.9776 24.9075L41.0197 22.0923L39.7992 21.4606L36.4197 24.0918Z" fill="#3F9EC4" />
    <path d="M43.5835 15.9282L41.8416 15.1493L39.7992 21.4605L41.0197 22.0922L43.5835 15.9282Z" fill="#C7F8FF" />
    <path d="M47.7787 22.1659L44.5832 22.6443L43.5835 15.9283V11.4755L46.9997 10.439L44.9205 15.6339L46.92 20.1971L47.7787 22.1659Z" fill="#AAF8FF" />
    <path d="M43.5835 15.9283L41.8416 15.1493L42.136 8.35974L43.5099 8.95467L43.5835 11.4755V15.9283Z" fill="#348DB6" />
    <path d="M43.5099 8.95466L42.136 8.35973L43.0253 4.79626L44.1416 5.2808L43.5099 8.95466Z" fill="#C9F8FF" />
    <path d="M44.1416 5.28077L43.0253 4.79624L45.7731 0.306641L47.6621 1.01197L44.1416 5.28077Z" fill="#2E7BA6" />
    <path d="M47.6621 1.01196L44.1416 5.28076L43.5099 8.95463L43.5835 11.4754L46.9997 10.4389L47.8155 8.3965L47.6621 1.01196Z" fill="#216D97" />
    <path d="M47.6621 1.01196L47.8155 8.3965L51.4525 7.58076L50.7472 4.2381L47.6621 1.01196Z" fill="#339CC5" />
    <path d="M51.4525 7.58081L47.8155 8.39654L49.9315 14.7445L51.3789 14.4808L51.4525 7.58081Z" fill="#1E6B94" />
    <path d="M47.8155 8.39648L46.9997 10.4389L48.3675 14.0392L49.9315 14.7445L47.8155 8.39648Z" fill="#73B7D6" />
    <path d="M48.3675 14.0392L49.9315 14.7445L47.7787 22.1659L46.92 20.1971L48.3675 14.0392Z" fill="#C5F9FF" />
    <path d="M51.3789 14.4808L50.4467 21.4238L47.7787 22.1659L49.9315 14.7446L51.3789 14.4808Z" fill="#44B0D3" />
    <path d="M51.3789 14.4808L50.4467 21.4238L53.5624 22.6443L53.6053 19.6022L51.3789 14.4808Z" fill="#ABF8FF" />
    <path d="M53.6053 19.6022L53.5624 22.6443L56.6475 23.1288L56.5371 21.2336L55.2 20.4547L53.6053 19.6022Z" fill="#7EE4F6" />
    <path d="M56.5371 21.2336L56.6475 23.1288L59.8736 21.3869L59.3155 19.7861L56.5371 21.2336Z" fill="#ADF8FF" />
    <path d="M59.3155 19.7861L56.5371 21.2336L55.2 20.4546L57.684 19.0869L59.3155 19.7861Z" fill="#3DA0C7" />
    <path d="M59.8736 21.3869L60.8365 20.5712L62.5845 21.3869L60.9899 21.9021L59.8736 21.3869Z" fill="#2C7DA7" />
    <path d="M59.8736 21.387L60.9899 21.9022L61.8424 25.5392L60.3213 24.8339L59.8736 21.387Z" fill="#A5E1F3" />
    <path d="M61.8424 25.5392L63.4003 24.5027V24.3371L62.5845 21.387L60.9899 21.9022L61.8424 25.5392Z" fill="#2979A3" />
    <path d="M60.3213 24.8339L61.8424 25.5392L64.4736 27.6184L62.6949 26.8027L60.3213 24.8339Z" fill="#CADBE9" />
    <path d="M63.4003 24.5027L61.8424 25.5392L64.4736 27.6184L66.0315 25.4656L63.4003 24.5027Z" fill="#6FDAF1" />
    <path d="M66.0315 25.4656L63.4003 24.5026V24.337L64.3632 24.7234L66.0315 25.4656Z" fill="#4A94BA" />
    <path d="M63.0629 34.5982L61.4315 34.2609L60.8611 33.3593L63.0629 34.5982Z" fill="#EDF8FE" />
    <path d="M63.0629 34.5982L60.8611 33.3592L64.9213 28.0662L66.7736 28.9187L63.0629 34.5982Z" fill="#BCF7FF" />
    <path d="M66.7736 28.9186L64.9213 28.0661L62.6949 26.8026L64.4736 27.6183L66.7736 28.9186Z" fill="#4F9EC3" />
    <path d="M64.4736 27.6184L66.0315 25.4656L69.2085 26.0605L66.7736 28.9186L64.4736 27.6184Z" fill="#2B84AF" />
    <path d="M66.0315 25.4656L69.2085 26.0605L70.9688 23.9813L66.0315 25.4656Z" fill="#45B8DB" />
    <path d="M66.0315 25.4656L64.3019 24.6989L69.3005 23.276L70.9688 23.9813L66.0315 25.4656Z" fill="#2A7098" />
    <path d="M63.0629 34.5981L63.4371 35.6715L67.8899 31.2923L71.5637 25.1712L70.9688 23.9813L69.2085 26.0605L66.7736 28.9187L63.0629 34.5981Z" fill="#41A3C9" />
    <path d="M63.7683 36.708L63.4371 35.6714L67.8899 31.2922L69.1165 33.6658L67.8531 34.408L63.7683 36.708Z" fill="#3C9FC7" />
    <path d="M69.1165 33.6659L67.8531 34.408L68.3744 36.3032L69.3803 36.7878L69.1165 33.6659Z" fill="#84D7ED" />
    <path d="M67.8899 31.2923L69.1165 33.6659L74.1213 30.2925L73.5325 29.1763L67.8899 31.2923Z" fill="#1E6892" />
    <path d="M74.1213 30.2925L69.1165 33.6658L69.3803 36.7877L71.2693 35.6346L74.1213 30.2925Z" fill="#2F92BD" />
    <path d="M69.3803 36.7877L71.2693 35.6346L71.3061 39.4189L70.0427 40.572L69.3803 36.7877Z" fill="#AEF8FF" />
    <path d="M68.3744 36.3032L69.3803 36.7878L70.0427 40.572L68.0003 39.4926L68.3744 36.3032Z" fill="#A4E5F6" />
    <path d="M70.0427 40.572L68.0003 39.4926L70.1163 41.6086L71.7845 42.4611L70.0427 40.572Z" fill="#D5E6F1" />
    <path d="M71.7845 42.4611L73.3056 41.2405L71.3061 39.4189L70.0427 40.572L71.7845 42.4611Z" fill="#7BDFF4" />
    <path d="M67.8899 31.2923L69.0245 29.4033L71.8213 28.3606L73.5325 29.1763L67.8899 31.2923Z" fill="#1F6088" />
    <path d="M73.5325 29.1763L77.188 23.1288L80.6901 23.7237L78.6539 26.2813L74.1213 30.2925L73.5325 29.1763Z" fill="#257DA9" />
    <path d="M77.188 23.1288L77.1757 23.1349L74.4219 24.0917L71.8213 28.3605L73.5325 29.1763L77.188 23.1288Z" fill="#41A9CF" />
    <path d="M71.5637 25.1712L70.9688 23.9814L76.5379 20.2339L77.188 23.1288L74.4219 24.0918L71.5637 25.1712Z" fill="#43A7CD" />
    <path d="M70.9688 23.9814L69.3005 23.2761L74.0109 19.1974L76.5379 20.2339L70.9688 23.9814Z" fill="#47A2C9" />
    <path d="M76.5379 20.2339L74.0109 19.1973L77.3168 18.0811L78.2061 18.4552L76.5379 20.2339Z" fill="#4B94BB" />
    <path d="M78.2061 18.4552L76.5379 20.2339L77.188 23.1288L81.88 18.9336L78.2061 18.4552Z" fill="#479CC2" />
    <path d="M81.88 18.9336L77.188 23.1288L80.6901 23.7237L81.88 18.9336Z" fill="#A9F5FE" />
    <path d="M81.88 18.9336L78.2061 18.4552L77.3168 18.0811L80.1749 18.2283L81.88 18.9336Z" fill="#F8FCFF" />
</svg>
    